# xmcd
# 
# Track frame offsets:
#     183
#     49110
#     71478
#     92385
#     110560
#     128020
#     141413
#     166083
#     195683
#     204670
#     226215
#     235228
#     250943
#     273015
#     284750
# 
# Disc length: 3974
# 
# Revision: 1
# Processed by: cddbd v1.5.2PL0 Copyright (c) Steve Scherf et al.
# Submitted via: fre:ac v1.0.31
# 
DISCID=d60f840f
DTITLE=Ella Fitzgerald and Louis Armstrong - Porgy and Bess
DYEAR=1958
DGENRE=Jazz
TTITLE0=Porgy And Bess: Overture
TTITLE1=Summertime
TTITLE2=I Wants To Stay Here
TTITLE3=My Man's Gone Now
TTITLE4=I Got Plenty O' Nuttin'
TTITLE5=Buzzard Song
TTITLE6=Bess You Is My Woman Now
TTITLE7=It Ain't Necessarily So
TTITLE8=What You Want Wid Bess?
TTITLE9=A Woman Is A Sometime Thing
TTITLE10=Oh, Doctor Jesus
TTITLE11=Medley: Here Come De Honey Man - Crab Man - Oh, Dey's So Fresh And Fine
TTITLE12=There's A Boat Dat's Leavin' Soon For New York
TTITLE13=Bess, Oh Where's My Bess?
TTITLE14=Oh Lawd, I'm On My Way
EXTD=YEAR: 1958
EXTT0=
EXTT1=
EXTT2=
EXTT3=
EXTT4=
EXTT5=
EXTT6=
EXTT7=
EXTT8=
EXTT9=
EXTT10=
EXTT11=
EXTT12=
EXTT13=
EXTT14=
PLAYORDER=
